<svg width="304" height="1208" viewBox="0 0 304 1208" fill="none" xmlns="http://www.w3.org/2000/svg">
<path fill-rule="evenodd" clip-rule="evenodd" d="M229.944 1208C89.7394 1057.89 4.23805 858.138 4.23805 638.898C4.23805 383.657 120.124 154.829 303.299 0H297.124C115.171 155.496 0.23805 384.075 0.23805 638.898C0.23805 857.89 85.1228 1057.5 224.481 1208L229.944 1208Z" fill="#CBB2FA"/>
<path d="M154.765 1095.55C155.712 1089.94 157.833 1084.59 160.988 1079.86C159.681 1081.84 152.15 1092.46 146.606 1092.46C143.573 1092.46 140.121 1089.27 137.401 1086.03C135.774 1084.03 134.272 1081.93 132.904 1079.75C133.584 1081.16 139.807 1093.77 136.774 1098.69C133.74 1103.6 119.567 1103.92 119.567 1103.92C119.567 1103.92 134.002 1104.81 136.774 1109.15C139.546 1113.49 133.636 1126.62 132.904 1128.03C134.297 1125.85 135.816 1123.75 137.454 1121.75C140.121 1118.51 143.573 1115.27 146.658 1115.27C152.202 1115.27 159.681 1125.73 161.041 1127.87C157.858 1123.15 155.719 1117.8 154.765 1112.18C154.721 1111.13 154.994 1110.09 155.549 1109.2C158.687 1104.33 173.592 1103.97 173.592 1103.97C173.592 1103.97 158.687 1103.55 155.497 1098.74C154.918 1097.78 154.661 1096.66 154.765 1095.55Z" fill="#9747FF"/>
</svg>
