<svg width="24" height="25" viewBox="0 0 24 25" fill="none" xmlns="http://www.w3.org/2000/svg">
<g clip-path="url(#clip0_25939_131)">
<path d="M8.02742 19.9466C8.02742 20.0388 7.91613 20.1125 7.77581 20.1125C7.61613 20.1263 7.50484 20.0526 7.50484 19.9466C7.50484 19.8544 7.61613 19.7807 7.75645 19.7807C7.90161 19.7669 8.02742 19.8406 8.02742 19.9466ZM6.52258 19.7392C6.48871 19.8314 6.58548 19.9374 6.73065 19.965C6.85645 20.0111 7.00161 19.965 7.03064 19.8729C7.05968 19.7807 6.96774 19.6747 6.82258 19.6332C6.69677 19.6009 6.55645 19.647 6.52258 19.7392ZM8.66129 19.6609C8.52097 19.6931 8.42419 19.7807 8.43871 19.8867C8.45323 19.9789 8.57903 20.0388 8.72419 20.0065C8.86452 19.9743 8.96129 19.8867 8.94677 19.7945C8.93226 19.7069 8.80161 19.647 8.66129 19.6609ZM11.8452 2C5.13387 2 0 6.85305 0 13.2454C0 18.3566 3.37742 22.7303 8.20161 24.2696C8.82097 24.3756 9.03871 24.0116 9.03871 23.712C9.03871 23.4262 9.02419 21.85 9.02419 20.8822C9.02419 20.8822 5.6371 21.5735 4.92581 19.5088C4.92581 19.5088 4.37419 18.1676 3.58065 17.822C3.58065 17.822 2.47258 17.0984 3.65806 17.1122C3.65806 17.1122 4.8629 17.2044 5.52581 18.3013C6.58548 20.0803 8.36129 19.5687 9.05323 19.2645C9.16452 18.5271 9.47903 18.0155 9.82742 17.7113C7.12258 17.4256 4.39355 17.0523 4.39355 12.6186C4.39355 11.3512 4.76129 10.7152 5.53548 9.90406C5.40968 9.60449 4.99839 8.36934 5.66129 6.7747C6.67258 6.47513 9 8.01907 9 8.01907C9.96774 7.76098 11.0081 7.62733 12.0387 7.62733C13.0694 7.62733 14.1097 7.76098 15.0774 8.01907C15.0774 8.01907 17.4048 6.47052 18.4161 6.7747C19.079 8.37395 18.6677 9.60449 18.5419 9.90406C19.3161 10.7198 19.7903 11.3558 19.7903 12.6186C19.7903 17.0661 16.9403 17.421 14.2355 17.7113C14.6806 18.0754 15.0581 18.7668 15.0581 19.8498C15.0581 21.403 15.0435 23.3248 15.0435 23.7028C15.0435 24.0023 15.2661 24.3664 15.8806 24.2604C20.7194 22.7303 24 18.3566 24 13.2454C24 6.85305 18.5565 2 11.8452 2ZM4.70323 17.8957C4.64032 17.9418 4.65484 18.0478 4.7371 18.1354C4.81452 18.2091 4.92581 18.2414 4.98871 18.1814C5.05161 18.1354 5.0371 18.0294 4.95484 17.9418C4.87742 17.868 4.76613 17.8358 4.70323 17.8957ZM4.18064 17.5224C4.14677 17.5823 4.19516 17.656 4.29194 17.7021C4.36935 17.7482 4.46613 17.7344 4.5 17.6699C4.53387 17.61 4.48548 17.5362 4.38871 17.4901C4.29194 17.4625 4.21452 17.4763 4.18064 17.5224ZM5.74839 19.1631C5.67097 19.223 5.7 19.3613 5.81129 19.4489C5.92258 19.5549 6.0629 19.5687 6.12581 19.4949C6.18871 19.435 6.15968 19.2968 6.0629 19.2092C5.95645 19.1032 5.81129 19.0894 5.74839 19.1631ZM5.19677 18.4856C5.11935 18.5317 5.11935 18.6515 5.19677 18.7575C5.27419 18.8635 5.40484 18.9096 5.46774 18.8635C5.54516 18.8036 5.54516 18.6838 5.46774 18.5778C5.4 18.4718 5.27419 18.4257 5.19677 18.4856Z" fill="#B38FFF"/>
</g>
<defs>
<clipPath id="clip0_25939_131">
<rect width="24" height="24" fill="white" transform="translate(0 0.5)"/>
</clipPath>
</defs>
</svg>
