<svg width="138" height="64" viewBox="0 0 138 64" fill="none" xmlns="http://www.w3.org/2000/svg">
<path d="M119.329 39.9027L123.669 19.4647H132.02C132.696 19.4561 133.364 19.6132 133.966 19.9221C134.529 20.2223 135.025 20.6327 135.426 21.129C135.855 21.6411 136.185 22.2286 136.399 22.8613C136.613 23.5114 136.721 24.1915 136.72 24.8759C136.708 25.689 136.549 26.4933 136.253 27.2506C135.97 28.0161 135.573 28.7345 135.076 29.382C134.585 30.0238 133.997 30.5852 133.333 31.0462C132.692 31.5044 131.968 31.8349 131.202 32.0195L134.219 39.8054H131.299L128.467 32.545H123.465L121.917 39.9027H119.329ZM129.742 30.2579C130.318 30.2604 130.885 30.1128 131.387 29.8297C131.903 29.5185 132.361 29.12 132.74 28.6521C133.127 28.1644 133.436 27.6193 133.655 27.0365C133.885 26.4404 134.004 25.807 134.005 25.1679C134.008 24.7281 133.939 24.2908 133.801 23.8735C133.679 23.4832 133.495 23.1152 133.256 22.7835C133.034 22.4834 132.748 22.2371 132.419 22.0633C132.109 21.8713 131.751 21.7701 131.387 21.7713H125.771L123.961 30.2579H129.742Z" fill="white"/>
<path d="M106.988 19.4647H119.932L119.445 21.7616H109.081L107.679 28.3796H116.681L116.224 30.5401H107.212L105.723 37.5864H116.331L115.815 39.9027H102.638L106.988 19.4647Z" fill="white"/>
<path d="M90.2967 19.4647H103.241L102.754 21.7616H92.3989L90.9877 28.3796H99.9901L99.5327 30.5401H90.5108L89.012 37.5864H99.63L99.1531 39.9027H85.9561L90.2967 19.4647Z" fill="white"/>
<path d="M68.0193 37.7226L66.1799 40.0487H75.4257C76.522 40.0588 77.6149 39.9247 78.6763 39.6496C79.6347 39.3855 80.5402 38.9575 81.3527 38.3844C82.1146 37.8376 82.7352 37.1169 83.1629 36.2822C83.6383 35.3489 83.8757 34.3125 83.8539 33.2652C83.8713 32.6382 83.7343 32.0165 83.4549 31.455C83.1927 30.9474 82.8162 30.5076 82.3551 30.1703C81.8445 29.7601 81.2732 29.4317 80.6617 29.1971C79.9288 28.9081 79.1778 28.6675 78.4135 28.4769C77.6836 28.3017 77.051 28.1362 76.5157 27.9611C76.0498 27.7953 75.5975 27.5935 75.1629 27.3577C74.8366 27.1578 74.5549 26.8927 74.3356 26.5791C74.1545 26.2449 74.0639 25.8691 74.0729 25.489C74.0583 24.9594 74.1586 24.4328 74.367 23.9456C74.5753 23.4584 74.8867 23.0221 75.2797 22.6667C76.3694 21.8276 77.7344 21.4282 79.1045 21.5474H86.1215L86.8028 19.2409H79.6495C78.538 19.2373 77.4323 19.4013 76.3697 19.7275C75.4022 20.0313 74.4984 20.5095 73.703 21.1387C72.9132 21.7475 72.2773 22.533 71.8462 23.4323C71.4152 24.3315 71.2012 25.3193 71.2213 26.3163C71.2088 26.8718 71.3184 27.4233 71.5425 27.9319C71.7859 28.3848 72.1167 28.7851 72.5157 29.1095C72.994 29.4661 73.5176 29.7574 74.0729 29.9757C74.7601 30.2451 75.462 30.4758 76.1751 30.6667C76.9245 30.871 77.596 31.0754 78.1897 31.2701C78.7174 31.4257 79.2192 31.6585 79.6787 31.9611C80.0727 32.1693 80.4076 32.474 80.652 32.8467C80.8907 33.2055 81.0037 33.6334 80.9731 34.0633C80.9928 34.5891 80.8801 35.1115 80.6455 35.5825C80.4108 36.0535 80.0617 36.4581 79.6301 36.7591C78.5419 37.4578 77.2622 37.7982 75.9707 37.7324L68.0193 37.7226Z" fill="white"/>
<path d="M51.708 43.9513C51.5714 43.9479 51.4378 43.9112 51.3187 43.8443C51.1528 43.7396 51.0332 43.5755 50.9843 43.3855C50.9355 43.1955 50.9611 42.9941 51.0559 42.8224C54.0833 37.6702 55.238 31.6305 54.3247 25.7249C53.4114 19.8193 50.4861 14.4106 46.0438 10.4136C45.9019 10.2745 45.8194 10.0859 45.8136 9.88738C45.8077 9.68881 45.8789 9.49568 46.0123 9.34846C46.1457 9.20125 46.3309 9.11137 46.529 9.09766C46.7272 9.08395 46.923 9.14748 47.0754 9.27494C51.7705 13.5089 54.8612 19.233 55.8257 25.4812C56.7902 31.7294 55.5696 38.1191 52.3698 43.5718C52.302 43.6872 52.2054 43.7829 52.0893 43.8494C51.9732 43.916 51.8418 43.9511 51.708 43.9513Z" fill="white"/>
<path d="M28.7008 57.1095C28.146 57.1095 27.5913 57.1095 27.056 57.1095C26.2579 57.0608 25.4307 56.9732 24.6132 56.8565C22.7285 56.5751 20.8789 56.0955 19.0949 55.4258C18.2579 55.1144 17.4501 54.764 16.691 54.3942C15.2761 53.6879 13.9248 52.8608 12.6521 51.9221C11.8972 51.3783 11.1727 50.7935 10.4818 50.1703C9.29583 49.1164 8.20485 47.9603 7.22143 46.7153C6.70247 46.0914 6.21523 45.4418 5.76158 44.7689C5.02451 43.6218 4.37389 42.4214 3.81511 41.1776C3.45501 40.3893 3.12411 39.5913 2.84187 38.7932C2.44811 37.7151 2.12304 36.6131 1.86864 35.4939C1.71292 34.7445 1.57667 33.9562 1.47934 33.1582C1.36397 32.2572 1.29575 31.3509 1.27496 30.4428C1.27496 30.1995 1.27496 29.9562 1.27496 29.7129C1.26631 25.5605 2.20033 21.4603 4.00661 17.7214C5.81288 13.9824 8.4443 10.7023 11.7025 8.12812C14.9608 5.55396 18.7608 3.75297 22.8162 2.86087C26.8717 1.96878 31.0767 2.00887 35.1144 2.97811C35.2968 3.03932 35.4497 3.16671 35.5427 3.33512C35.6358 3.50353 35.6624 3.70073 35.6171 3.88776C35.5719 4.0748 35.4582 4.23807 35.2984 4.34534C35.1387 4.45261 34.9445 4.49608 34.7543 4.46716C30.9455 3.55763 26.9803 3.52231 23.1559 4.36386C19.3316 5.2054 15.7474 6.90198 12.6723 9.32631C9.59712 11.7507 7.11084 14.8398 5.3999 18.3621C3.68897 21.8844 2.79779 25.7484 2.79321 29.6642C2.79321 29.8978 2.79321 30.1217 2.79321 30.3552C2.81524 31.2112 2.88021 32.0654 2.98786 32.9149C3.07396 33.657 3.19739 34.3944 3.35769 35.1241C3.58568 36.1792 3.8782 37.2192 4.2336 38.2385C4.49637 38.9878 4.80781 39.747 5.14844 40.4866C5.68595 41.6656 6.31394 42.8012 7.02679 43.8832C7.45501 44.5353 7.92216 45.1679 8.40878 45.8297C9.33133 46.9968 10.3574 48.0783 11.4745 49.0608C12.128 49.6498 12.8135 50.2021 13.528 50.7153C14.7323 51.5901 16.0123 52.3555 17.3528 53.0024C18.0905 53.3677 18.8475 53.6926 19.6205 53.9757C21.3037 54.606 23.0491 55.0563 24.8273 55.3187C25.6059 55.4355 26.3747 55.5134 27.1338 55.562C28.2325 55.6301 29.3344 55.6301 30.4331 55.562C30.6355 55.5487 30.8351 55.6158 30.9882 55.7489C31.1413 55.882 31.2357 56.0702 31.2506 56.2725C31.2614 56.4759 31.192 56.6754 31.0573 56.8282C30.9227 56.9811 30.7336 57.075 30.5304 57.09C29.9368 57.09 29.3139 57.1095 28.7008 57.1095Z" fill="white"/>
<path d="M42.9393 34.18C42.9393 34.8418 42.258 35.2993 41.0804 35.4355C38.9276 35.6321 36.7675 35.1467 34.9056 34.0481C33.0438 32.9496 31.5745 31.2934 30.7057 29.3139C30.6284 29.1235 30.6284 28.9105 30.7057 28.7202C30.7731 28.5265 30.9125 28.3661 31.095 28.2725C31.2863 28.2 31.4974 28.2 31.6887 28.2725C31.8831 28.344 32.0431 28.4866 32.1364 28.6715C32.7261 29.9267 33.5946 31.0307 34.6757 31.8993C35.7569 32.7679 37.022 33.3782 38.3748 33.6837C39.1297 33.8674 39.9046 33.9557 40.6814 33.9465C38.7349 32.9732 37.3918 32.0876 35.3189 28.4671C35.0083 27.7531 34.5349 27.1215 33.9367 26.623C33.3385 26.1245 32.632 25.7728 31.8736 25.5961C30.5406 25.2301 29.309 24.5643 28.2726 23.6496C25.0415 20.8759 25.9758 17.8589 26.2094 17.2457C26.5403 15.9027 28.3407 15.1922 31.8833 15.017C33.1777 14.9489 34.4429 15.017 35.2799 15.017C33.7422 13.4598 29.0804 13.0705 27.494 13.0705H27.2118L27.0074 12.9148C24.3797 11.017 21.9563 10.4525 19.7957 11.2311C15.5427 12.7786 13.1291 19.1338 12.2142 22.1411C12.5612 22.1339 12.9017 22.2361 13.1875 22.4331C14.1607 23.0754 13.6546 24.1557 13.1875 25.1095C12.6005 26.2578 12.2685 27.5193 12.2142 28.8078V29.1971C12.2142 32.837 12.0974 41.3722 33.8298 51.8345L33.9855 51.9221L34.0926 52.0486C34.6883 52.9028 35.2186 53.8007 35.679 54.7348L35.9417 55.309C35.9829 55.3991 36.0042 55.497 36.0042 55.5961C36.0042 55.6952 35.9829 55.7931 35.9417 55.8832C35.8974 55.9729 35.8345 56.0522 35.7574 56.1159C35.6802 56.1797 35.5905 56.2264 35.494 56.253H35.2605C35.0892 56.254 34.9214 56.2047 34.7778 56.1113C34.6342 56.0179 34.5212 55.8845 34.4527 55.7275C34.3748 55.5426 34.2872 55.3674 34.1899 55.1825C33.8419 54.4714 33.4451 53.7853 33.0026 53.1289C10.5111 42.2676 10.5889 33.09 10.6279 29.1971V28.8564C10.6756 27.3465 11.0614 25.8666 11.7568 24.5255C11.8444 24.3309 12.0001 23.9903 12.0877 23.7567C11.9438 23.8212 11.8121 23.9101 11.6984 24.0195C11.5607 24.1523 11.3829 24.2358 11.1928 24.2569C11.0026 24.278 10.8108 24.2356 10.6473 24.1362C10.4866 24.0369 10.3615 23.8892 10.2898 23.7144C10.2182 23.5396 10.2036 23.3466 10.2483 23.163C10.9101 20.5645 13.5184 11.8929 19.1923 9.82967C21.8006 8.85644 24.6425 9.46957 27.64 11.5815C29.0838 11.6115 30.5227 11.7612 31.9417 12.0292C35.2702 12.6813 37.0609 13.9757 37.2653 15.7956L37.3724 16.7688L36.3991 16.7007C31.6498 16.3406 27.786 16.944 27.64 17.674V17.7907V17.8491C27.64 17.9367 26.6181 20.2336 29.2751 22.5109C30.1563 23.2767 31.2019 23.8295 32.331 24.1265C33.7617 24.5839 35.1145 25.0121 36.6522 27.708C38.5111 30.9586 39.4454 31.4939 40.7398 32.2433C41.0707 32.4282 41.421 32.6326 41.8103 32.8954L41.9953 33.0219C42.4916 33.3139 42.9393 33.6058 42.9393 34.18Z" fill="white"/>
<path d="M49.0122 45.5669C48.9916 45.7661 48.9134 45.955 48.7872 46.1105C48.6611 46.2661 48.4924 46.3815 48.3017 46.4428C48.1039 46.5347 47.887 46.578 47.6691 46.5693C47.2419 46.5542 46.8176 46.4922 46.4039 46.3844C46.2284 46.3228 46.0498 46.2708 45.8686 46.2287C44.0059 45.7887 42.2546 44.9674 40.7253 43.8166C39.1959 42.6659 37.9217 41.2105 36.983 39.5426C36.874 39.3726 36.8334 39.1676 36.8696 38.969C36.9057 38.7703 37.0158 38.5927 37.1776 38.472C37.2701 38.4078 37.3753 38.3641 37.4861 38.344C37.5969 38.3238 37.7108 38.3277 37.82 38.3552C37.9225 38.3792 38.0188 38.4245 38.1027 38.4883C38.1865 38.552 38.256 38.6327 38.3066 38.7251C39.2454 40.3905 40.538 41.8297 42.0935 42.9412C43.6489 44.0527 45.4293 44.8095 47.309 45.1581C44.9621 42.7936 42.9926 40.0823 41.4696 37.1192C41.3922 36.9289 41.3922 36.7159 41.4696 36.5255C41.5217 36.382 41.6148 36.2569 41.7374 36.1659C41.86 36.0749 42.0067 36.022 42.1592 36.0137C42.3117 36.0054 42.4632 36.0421 42.595 36.1193C42.7267 36.1964 42.8329 36.3106 42.9003 36.4477C44.2111 39.0768 45.8997 41.4999 47.9124 43.6399L47.9708 43.6983C48.5256 44.2141 49.1387 44.7688 49.0122 45.5669Z" fill="white"/>
<path d="M60.0875 61.2263C59.9053 61.5715 59.6196 61.8509 59.2705 62.0255C58.9214 62.2 58.5265 62.2609 58.141 62.1995H57.8004C54.2287 61.7685 50.8275 60.4281 47.922 58.3066L47.2894 57.8491C45.1386 56.3017 43.5911 55.1825 41.1872 50.6861C40.8991 50.5436 40.6035 50.4169 40.3016 50.3066C37.6831 49.2819 35.3043 47.7281 33.3138 45.7421C26.7152 39.601 23.7371 33.927 24.4573 28.8954C24.4749 28.7466 24.5351 28.6061 24.6305 28.4907C24.726 28.3753 24.8527 28.2899 24.9955 28.2447C25.1383 28.1995 25.2911 28.1965 25.4356 28.2359C25.5801 28.2754 25.7101 28.3556 25.8101 28.4671C25.8865 28.5519 25.9428 28.6528 25.9748 28.7623C26.0068 28.8719 26.0137 28.9872 25.995 29.0997C25.1775 34.7153 30.1021 40.6326 34.3649 44.6034C38.2578 48.2725 41.1191 49.2165 42.1507 49.4696H42.2675L42.5303 49.6253L42.6082 49.8978C46.7833 58.4817 57.1191 60.6034 57.2067 60.6034C57.5884 60.6765 57.9762 60.7123 58.3649 60.7105C58.4163 60.7025 58.4652 60.6824 58.5075 60.652C58.5498 60.6216 58.5843 60.5816 58.6082 60.5353C58.6269 60.5009 58.6367 60.4625 58.6367 60.4234C58.6367 60.3842 58.6269 60.3458 58.6082 60.3114C58.1486 59.6713 57.6235 59.0809 57.0413 58.5499C50.1313 51.9805 48.5352 49.4112 48.2043 48.4769C48.1269 48.2865 48.1269 48.0735 48.2043 47.8832C48.2542 47.7386 48.3456 47.612 48.4671 47.519C48.5886 47.4261 48.7348 47.371 48.8874 47.3606C49.04 47.3502 49.1922 47.385 49.3252 47.4606C49.4581 47.5363 49.5659 47.6494 49.6349 47.7859C49.7031 48.0097 50.5011 50.1216 58.141 57.3917C59.8831 59.1241 60.4962 60.3406 60.0875 61.2263Z" fill="white"/>
<path d="M22.2676 14.8224C22.8482 14.8224 23.3187 14.3518 23.3187 13.7713C23.3187 13.1908 22.8482 12.7202 22.2676 12.7202C21.6871 12.7202 21.2166 13.1908 21.2166 13.7713C21.2166 14.3518 21.6871 14.8224 22.2676 14.8224Z" fill="white"/>
<path d="M42.5985 7.90268C42.7748 8.94657 43.1694 9.94148 43.7566 10.8224C43.5133 10.4526 42.1216 8.47689 41.0802 8.47689C40.5157 8.47689 39.8734 9.07057 39.377 9.67397C39.069 10.0473 38.7861 10.4407 38.5303 10.8516C38.6666 10.5791 39.815 8.23358 39.2505 7.32847C38.6861 6.42336 36.0486 6.35524 36.0486 6.35524C36.0486 6.35524 38.725 6.18979 39.2505 5.382C39.7761 4.57422 38.6666 2.12166 38.5303 1.85889C38.7861 2.26977 39.069 2.66318 39.377 3.0365C39.8734 3.63018 40.5157 4.23358 41.0802 4.23358C42.1216 4.23358 43.5133 2.28711 43.7566 1.88808C43.1681 2.7683 42.7734 3.76351 42.5985 4.80779C42.5874 5.00217 42.6348 5.19541 42.7347 5.36254C43.3284 6.26765 46.1021 6.33577 46.1021 6.33577C46.1021 6.33577 43.3284 6.42336 42.7347 7.30901C42.6269 7.48722 42.5792 7.69531 42.5985 7.90268Z" fill="white"/>
</svg>
