<svg width="24" height="21" viewBox="0 0 24 21" fill="none" xmlns="http://www.w3.org/2000/svg">
<path d="M2.84308 4.76232C2.87286 4.46433 2.75873 4.16634 2.54042 3.96431L0.302667 1.21672V0.807617H7.25905L12.6376 12.8131L17.3661 0.807617H24V1.21672L22.0848 3.08549C21.921 3.21175 21.8367 3.42388 21.8714 3.63096V17.3689C21.8367 17.576 21.921 17.7881 22.0848 17.9144L23.9553 19.7831V20.1922H14.5429V19.7831L16.4829 17.8689C16.6715 17.677 16.6715 17.6164 16.6715 17.3234V6.22198L11.2781 20.1569H10.5487L4.27703 6.22198V15.5607C4.22245 15.9547 4.35146 16.3486 4.62435 16.6315L7.14492 19.7427V20.1518H0V19.7478L2.52057 16.6315C2.78851 16.3486 2.91255 15.9496 2.84308 15.5607V4.76232Z" fill="#B38FFF"/>
</svg>
