<svg width="32" height="29" viewBox="0 0 32 29" fill="none" xmlns="http://www.w3.org/2000/svg">
<path d="M20.848 19.2395C21.4092 22.5626 22.6654 25.7297 24.5344 28.534C23.7599 27.3567 19.2991 21.0674 16.0155 21.0674C14.2188 21.0674 12.1743 22.9573 10.5634 24.8781C9.59949 26.0612 8.70975 27.3028 7.89932 28.5959C8.30203 27.7594 11.9884 20.2929 10.1917 17.3806C8.39496 14.4684 0 14.2825 0 14.2825C0 14.2825 8.54985 13.7558 10.1917 11.1843C11.8335 8.61286 8.33301 0.836501 7.89932 0C8.72466 1.2906 9.62454 2.53196 10.5944 3.71778C12.1742 5.63863 14.2188 7.55949 16.0465 7.55949C19.3301 7.55949 23.7599 1.36319 24.5653 0.0929444C22.6804 2.89196 21.4132 6.0604 20.848 9.3874C20.822 10.0094 20.9839 10.6247 21.3127 11.1533C23.1713 14.0346 32 14.2515 32 14.2515C32 14.2515 23.1713 14.4993 21.2817 17.3496C20.9387 17.917 20.7867 18.5794 20.848 19.2395Z" fill="#9747FF"/>
</svg>
